<svg version="1" xmlns="http://www.w3.org/2000/svg" width="402.667" height="402.667" viewBox="0 0 302.000000 302.000000"><path d="M85 4.9C71 7.8 60.1 21.1 59.2 36.3c-.5 8.7 1.1 14.6 5.9 20.9 3.9 5.2 11.7 11.7 16.9 14 2 .9 2.8 1.8 2.4 2.8-5.9 15.2-3.4 29.7 7.3 41.1 3.2 3.5 4.1 5 2.8 4.6-1.1-.4-10.1-3.1-20-6.1-9.9-3-19.9-6.2-22.3-7-6.6-2.4-10.9.2-13.8 8.1-5.3 15.1 6.8 33.1 30.9 45.9 3.8 2 11.3 5.3 16.8 7.4 5.5 2 10.1 4.1 10.1 4.6.3 1.4-6 5.2-12.3 7.5-3.2 1.2-7.5 3.6-9.6 5.4-3.2 2.7-3.8 3.9-3.8 7.2 0 4.7 2.4 8.7 6.8 11.3 5.7 3.5 10.8 2.5 17.7-3.5 2.6-2.2 14.8-7.1 15.7-6.2.2.3-.3 2.9-1.1 5.8-3 10-1.2 17.4 4.9 20.3 4.2 2 14.3 2.1 21.8.1 3.2-.8 5.9-1.5 6-1.5.2 0 .1 3-.1 6.8-.6 9.7 1.1 14.8 6.7 20.3 2.5 2.5 5.2 4.8 6 5.1 1.1.3.7 3-2.2 13.8-6.4 23.7-6.7 29.3-1.6 32.1 8.6 4.5 41.7-30.8 58.2-62.1 5.9-11.2 8.7-20.5 8.7-29.2v-6.9l3.3.5c9 1.4 15 1.6 23.2.7 16.4-1.9 24.1-5.5 27.2-12.8 4.4-10.7-9.6-24.3-31.5-30.6-7.6-2.2-9.6-3.7-4.9-3.7 8 0 17.7-7.2 17.7-13.2 0-3.9-2.7-7.4-6.5-8.4l-2.4-.6 2.1-4.6c7.8-17.9 11.2-33.4 11.2-51.2 0-23.1-5.5-35-16.2-35-7.7 0-26.1 19.9-46.5 50.4-3.8 5.6-6.8 9.3-7.1 8.5-.2-.8-.9-3.4-1.5-5.9-.9-4.2-.8-4.7 1.6-7.2 5.1-5.3 4.1-18.9-1.8-26.1-3.9-4.7-11.9-8.5-19.6-9.3-5.8-.6-6.3-.9-9-4.8-5.6-8-17.4-10.7-28.8-6.7-3.2 1.1-6.2 1.8-6.6 1.3-.3-.4-1.1-2.8-1.8-5.5-4-16.4-15.1-28.5-27.6-30-2.2-.3-5.6-.2-7.5.2z"/></svg>